{
  "asset": {
    "version": "2.0",
    "generator": "xJolt libfdx sample"
  },
  "buffers": [
    {
      "uri": "data:application/octet-stream;base64,",
      "byteLength": 168
    }
  ],
  "bufferViews": [
    {
      "buffer": 0,
      "byteOffset": 0,
      "byteLength": 96
    },
    {
      "buffer": 0,
      "byteOffset": 96,
      "byteLength": 72
    }
  ],
  "accessors": [
    {
      "bufferView": 0,
      "componentType": 5126,
      "count": 8,
      "type": "VEC3",
      "min": [-0.5, -0.5, -0.5],
      "max": [0.5, 0.5, 0.5]
    },
    {
      "bufferView": 1,
      "componentType": 5123,
      "count": 36,
      "type": "SCALAR"
    }
  ],
  "materials": [
    {
      "name": "Cube",
      "pbrMetallicRoughness": {
        "baseColorFactor": [0.55, 0.74, 0.95, 1.0],
        "metallicFactor": 0.0,
        "roughnessFactor": 1.0
      }
    }
  ],
  "meshes": [
    {
      "name": "Cube",
      "primitives": [
        {
          "attributes": {
            "POSITION": 0
          },
          "indices": 1,
          "material": 0,
          "mode": 4
        }
      ]
    }
  ],
  "nodes": [
    {
      "mesh": 0
    }
  ],
  "scenes": [
    {
      "nodes": [0]
    }
  ],
  "scene": 0
}
